<svg width="25" height="22" viewBox="0 0 25 22" fill="none" xmlns="http://www.w3.org/2000/svg">
<path d="M0.78125 4.74999H21.0938C21.5254 4.74999 21.875 4.40038 21.875 3.96874V0.843742C21.875 0.412102 21.5254 0.0624924 21.0938 0.0624924H0.78125C0.349609 0.0624924 0 0.412102 0 0.843742V3.96874C0 4.40038 0.349609 4.74999 0.78125 4.74999ZM24.2188 8.65624H3.90625C3.47461 8.65624 3.125 9.00585 3.125 9.43749V12.5625C3.125 12.9941 3.47461 13.3437 3.90625 13.3437H24.2188C24.6504 13.3437 25 12.9941 25 12.5625V9.43749C25 9.00585 24.6504 8.65624 24.2188 8.65624ZM21.0938 17.25H0.78125C0.349609 17.25 0 17.5996 0 18.0312V21.1562C0 21.5879 0.349609 21.9375 0.78125 21.9375H21.0938C21.5254 21.9375 21.875 21.5879 21.875 21.1562V18.0312C21.875 17.5996 21.5254 17.25 21.0938 17.25Z" fill="white"/>
</svg>
